<svg xmlns="http://www.w3.org/2000/svg" viewBox="0 0 129.32 17.65"><defs><style>.cls-1{fill:#231815;}</style></defs><title>Asset 2</title><g id="Layer_2" data-name="Layer 2"><g id="Layer_1-2" data-name="Layer 1"><g id="シンボル_13_2" data-name="シンボル 13 2"><g id="シンボル_3_1" data-name="シンボル 3 1"><g id="グループ化_364" data-name="グループ化 364"><path id="パス_249" data-name="パス 249" class="cls-1" d="M0,17.33V1.48H2.46a10.91,10.91,0,0,1,2.64.25,4,4,0,0,1,1.67.84A4.49,4.49,0,0,1,7.88,4.08a4.41,4.41,0,0,1,.41,1.85A3.73,3.73,0,0,1,6.92,8.83a4.09,4.09,0,0,1,2.85,4,4.2,4.2,0,0,1-1.36,3.14A4.38,4.38,0,0,1,6.56,17a11,11,0,0,1-2.8.3Zm2.49-9h.77a2.93,2.93,0,0,0,2-.59A2.2,2.2,0,0,0,5.93,6a2.19,2.19,0,0,0-.67-1.71,2.77,2.77,0,0,0-1.92-.57H2.49Zm0,6.8H4a3.87,3.87,0,0,0,2.46-.64,2.15,2.15,0,0,0,.82-1.76A2.18,2.18,0,0,0,6.51,11a4.15,4.15,0,0,0-2.77-.69H2.49Z"/><path id="パス_250" data-name="パス 250" class="cls-1" d="M22.91,12.88H15.47a2.88,2.88,0,0,0,.82,2,2.82,2.82,0,0,0,3.36.3A6.11,6.11,0,0,0,21,13.63l2,1.09A6.23,6.23,0,0,1,22,16a5.5,5.5,0,0,1-1.13.92,4.1,4.1,0,0,1-1.28.52,7.24,7.24,0,0,1-1.51.17,4.93,4.93,0,0,1-3.72-1.43,5.23,5.23,0,0,1-1.41-3.84,5.42,5.42,0,0,1,1.36-3.83,4.81,4.81,0,0,1,3.64-1.46,4.69,4.69,0,0,1,3.62,1.41,5.47,5.47,0,0,1,1.31,3.88ZM20.44,11A2.27,2.27,0,0,0,18,9.15a3,3,0,0,0-.82.12,1.87,1.87,0,0,0-.69.37,2.88,2.88,0,0,0-.54.57,2.6,2.6,0,0,0-.33.77h4.8Z"/><path id="パス_251" data-name="パス 251" class="cls-1" d="M42.74,3.73H37V7.54h5.54V9.79H37v7.54H34.53V1.48h8.21Z"/><path id="パス_252" data-name="パス 252" class="cls-1" d="M54.36,7.35h2.41v10H54.36v-1a4.71,4.71,0,0,1-6.67-.09l-.08-.08a5.47,5.47,0,0,1-1.38-3.81,5.34,5.34,0,0,1,1.38-3.76A4.62,4.62,0,0,1,51.1,7a4.51,4.51,0,0,1,3.26,1.43V7.35Zm-5.7,5a3.41,3.41,0,0,0,.8,2.35,2.62,2.62,0,0,0,2.08.92,2.77,2.77,0,0,0,2.15-.89,3.7,3.7,0,0,0,0-4.65,2.75,2.75,0,0,0-2.13-.89,2.69,2.69,0,0,0-2.08.92,3.26,3.26,0,0,0-.83,2.25Z"/><path id="パス_253" data-name="パス 253" class="cls-1" d="M63.64,0V8.5a4.6,4.6,0,0,1,6.5-.17l.24.25a5.28,5.28,0,0,1,1.38,3.73,5.29,5.29,0,0,1-1.41,3.81,4.63,4.63,0,0,1-3.51,1.51,4.5,4.5,0,0,1-3.21-1.34v1H61.26V0Zm5.72,12.41a3.42,3.42,0,0,0-.82-2.35,2.6,2.6,0,0,0-2.05-.91,2.85,2.85,0,0,0-2.15.89,3.3,3.3,0,0,0-.82,2.3,3.28,3.28,0,0,0,.82,2.32,2.93,2.93,0,0,0,4.14.06l.06-.06A3.21,3.21,0,0,0,69.36,12.41Z"/><path id="パス_254" data-name="パス 254" class="cls-1" d="M77.24,7.34v5.74c0,1.66.67,2.47,2,2.47s2-.82,2-2.47V7.34h2.39v5.78a6.35,6.35,0,0,1-.31,2.08,3.59,3.59,0,0,1-1,1.41,5.18,5.18,0,0,1-6.16,0,3.66,3.66,0,0,1-1.05-1.41,5.41,5.41,0,0,1-.31-2.08V7.34Z"/><path id="パス_255" data-name="パス 255" class="cls-1" d="M90.55,0V17.33H88.17V0Z"/><path id="パス_256" data-name="パス 256" class="cls-1" d="M94.53,12.26a4.89,4.89,0,0,1,1.62-3.68,5.51,5.51,0,0,1,3.92-1.51,5.59,5.59,0,0,1,4,1.53,5.21,5.21,0,0,1,.13,7.36l-.16.15a5.59,5.59,0,0,1-4,1.51,5.38,5.38,0,0,1-3.9-1.53A5,5,0,0,1,94.53,12.26Zm2.44,0a3.4,3.4,0,0,0,.82,2.37,3,3,0,0,0,2.26.89,3,3,0,0,0,2.26-.87,3.22,3.22,0,0,0,.85-2.32,3.18,3.18,0,0,0-.85-2.32,3.28,3.28,0,0,0-4.49,0A3,3,0,0,0,97,12.31Z"/><path id="パス_257" data-name="パス 257" class="cls-1" d="M111.84,7.34v5.74c0,1.66.67,2.47,2,2.47s2-.82,2-2.47V7.34h2.39v5.78A6.35,6.35,0,0,1,118,15.2a3.59,3.59,0,0,1-1,1.41,5.18,5.18,0,0,1-6.16,0,3.66,3.66,0,0,1-1.05-1.41,5.41,5.41,0,0,1-.31-2.08V7.34Z"/><path id="パス_258" data-name="パス 258" class="cls-1" d="M128.62,9l-2,1c-.31-.62-.69-.92-1.15-.92a.77.77,0,0,0-.56.22.71.71,0,0,0-.23.54c0,.4.46.77,1.39,1.14a8,8,0,0,1,2.57,1.46,2.46,2.46,0,0,1,.67,1.8,3.07,3.07,0,0,1-1.1,2.42,3.84,3.84,0,0,1-2.59.92,3.76,3.76,0,0,1-3.69-2.45l2.05-.92a5.38,5.38,0,0,0,.64.92,1.46,1.46,0,0,0,1.05.4c.82,0,1.21-.35,1.21-1.06,0-.42-.31-.79-.95-1.16-.23-.12-.49-.22-.72-.35l-.74-.35a4.47,4.47,0,0,1-1.46-1,2.4,2.4,0,0,1-.54-1.61,2.8,2.8,0,0,1,.92-2.15,3.35,3.35,0,0,1,2.31-.84A3,3,0,0,1,128.62,9Z"/></g></g></g></g></g></svg>