<svg xmlns="http://www.w3.org/2000/svg" viewBox="0 0 1368 52">
  <defs>
    <style>
      .cls-1 {
        fill: #fff;
      }

      .cls-2 {
        fill: #231815;
      }

      .cls-3 {
        fill: none;
      }

      .cls-4, .cls-5 {
        stroke: none;
      }

      .cls-5 {
        fill: #eee;
      }
    </style>
  </defs>
  <g id="シンボル_13_2" data-name="シンボル 13 – 2" transform="translate(1 1)">
    <g id="パス_240" data-name="パス 240" class="cls-1">
      <path class="cls-4" d="M 1366.5 50.5 L 1366 50.5 L 0 50.5 L -0.5 50.5 L -0.5 50 L -0.5 0 L -0.5 -0.5 L 0 -0.5 L 1366 -0.5 L 1366.5 -0.5 L 1366.5 0 L 1366.5 50 L 1366.5 50.5 Z"/>
      <path class="cls-5" d="M 0 0 L 0 50 L 1366 50 L 1366 0 L 0 0 M -1 -1 L 0 -1 L 1366 -1 L 1367 -1 L 1367 0 L 1367 50 L 1367 51 L 1366 51 L 0 51 L -1 51 L -1 50 L -1 0 L -1 -1 Z"/>
    </g>
    <g id="シンボル_3_1" data-name="シンボル 3 – 1" transform="translate(86 -1)">
      <g id="グループ化_364" data-name="グループ化 364" transform="translate(55.394 18.874)">
        <path id="パス_249" data-name="パス 249" class="cls-2" d="M0,21.847V6H2.463A10.911,10.911,0,0,1,5.1,6.247a4.043,4.043,0,0,1,1.667.841A4.494,4.494,0,0,1,7.875,8.6a4.413,4.413,0,0,1,.41,1.854,3.727,3.727,0,0,1-1.36,2.893,4.091,4.091,0,0,1,2.847,3.98,4.2,4.2,0,0,1-1.36,3.14,4.38,4.38,0,0,1-1.847,1.088,11.048,11.048,0,0,1-2.8.3ZM2.488,12.8h.77a2.931,2.931,0,0,0,2.027-.593,2.2,2.2,0,0,0,.641-1.731,2.193,2.193,0,0,0-.667-1.706A2.772,2.772,0,0,0,3.335,8.2H2.488Zm0,6.8H4.027a3.871,3.871,0,0,0,2.463-.643A2.148,2.148,0,0,0,7.311,17.2a2.185,2.185,0,0,0-.8-1.731,4.149,4.149,0,0,0-2.77-.692H2.488Z" transform="translate(0 -4.517)"/>
        <path id="パス_250" data-name="パス 250" class="cls-2" d="M60.379,34.41H52.94a2.884,2.884,0,0,0,.821,1.953,2.821,2.821,0,0,0,3.36.3,6.105,6.105,0,0,0,1.308-1.508l2.027,1.088a6.226,6.226,0,0,1-1,1.31,5.5,5.5,0,0,1-1.129.915,4.1,4.1,0,0,1-1.283.519,7.242,7.242,0,0,1-1.513.173,4.927,4.927,0,0,1-3.72-1.434A5.231,5.231,0,0,1,50.4,33.891a5.419,5.419,0,0,1,1.36-3.832A4.809,4.809,0,0,1,55.4,28.6a4.692,4.692,0,0,1,3.617,1.409,5.47,5.47,0,0,1,1.308,3.882Zm-2.463-1.879A2.271,2.271,0,0,0,55.5,30.677a2.991,2.991,0,0,0-.821.124,1.868,1.868,0,0,0-.693.371,2.884,2.884,0,0,0-.539.569,2.6,2.6,0,0,0-.333.766h4.8Z" transform="translate(-37.471 -21.529)"/>
        <path id="パス_251" data-name="パス 251" class="cls-2" d="M142.809,8.25h-5.72v3.807h5.541v2.25h-5.541v7.541H134.6V6h8.209Z" transform="translate(-100.072 -4.517)"/>
        <path id="パス_252" data-name="パス 252" class="cls-2" d="M188.332,28.8h2.411v9.988h-2.411V37.746a4.715,4.715,0,0,1-6.746-.173,5.468,5.468,0,0,1-1.385-3.807,5.345,5.345,0,0,1,1.385-3.758,4.618,4.618,0,0,1,3.489-1.508,4.507,4.507,0,0,1,3.258,1.434V28.8Zm-5.695,4.969a3.409,3.409,0,0,0,.8,2.349,2.62,2.62,0,0,0,2.078.915,2.769,2.769,0,0,0,2.155-.89,3.7,3.7,0,0,0,0-4.648,2.751,2.751,0,0,0-2.129-.89,2.693,2.693,0,0,0-2.078.915A3.257,3.257,0,0,0,182.637,33.766Z" transform="translate(-133.975 -21.454)"/>
        <path id="パス_253" data-name="パス 253" class="cls-2" d="M241.186,0V8.5a4.6,4.6,0,0,1,6.746.074,5.284,5.284,0,0,1,1.385,3.733,5.29,5.29,0,0,1-1.411,3.807,4.634,4.634,0,0,1-3.514,1.508,4.5,4.5,0,0,1-3.206-1.335v1.038H238.8V0Zm5.72,12.411a3.424,3.424,0,0,0-.821-2.349,2.6,2.6,0,0,0-2.052-.915,2.845,2.845,0,0,0-2.155.89,3.3,3.3,0,0,0-.821,2.3,3.275,3.275,0,0,0,.821,2.324,2.93,2.93,0,0,0,4.207,0A3.214,3.214,0,0,0,246.906,12.411Z" transform="translate(-177.543)"/>
        <path id="パス_254" data-name="パス 254" class="cls-2" d="M294.111,29.7v5.736c0,1.656.667,2.472,2.026,2.472s2.027-.816,2.027-2.472V29.7h2.386v5.785a6.354,6.354,0,0,1-.308,2.077,3.587,3.587,0,0,1-1.026,1.409,5.181,5.181,0,0,1-6.156,0,3.661,3.661,0,0,1-1.052-1.409,5.412,5.412,0,0,1-.308-2.077V29.7Z" transform="translate(-216.873 -22.357)"/>
        <path id="パス_255" data-name="パス 255" class="cls-2" d="M346.086,0V17.331H343.7V0Z" transform="translate(-255.534)"/>
        <path id="パス_256" data-name="パス 256" class="cls-2" d="M368.5,33.792a4.885,4.885,0,0,1,1.616-3.684,5.508,5.508,0,0,1,3.925-1.508,5.59,5.59,0,0,1,3.95,1.533,5.206,5.206,0,0,1-.026,7.516,5.588,5.588,0,0,1-3.976,1.508,5.383,5.383,0,0,1-3.9-1.533A5.029,5.029,0,0,1,368.5,33.792Zm2.437.049a3.4,3.4,0,0,0,.821,2.373,2.957,2.957,0,0,0,2.257.89,3.032,3.032,0,0,0,2.257-.865,3.22,3.22,0,0,0,.847-2.324,3.18,3.18,0,0,0-.847-2.324,3.275,3.275,0,0,0-4.489,0A3,3,0,0,0,370.937,33.841Z" transform="translate(-273.973 -21.529)"/>
        <path id="パス_257" data-name="パス 257" class="cls-2" d="M429.011,29.7v5.736c0,1.656.667,2.472,2.026,2.472s2.026-.816,2.026-2.472V29.7h2.386v5.785a6.355,6.355,0,0,1-.308,2.077,3.587,3.587,0,0,1-1.026,1.409,5.181,5.181,0,0,1-6.156,0,3.661,3.661,0,0,1-1.052-1.409,5.412,5.412,0,0,1-.308-2.077V29.7Z" transform="translate(-317.169 -22.357)"/>
        <path id="パス_258" data-name="パス 258" class="cls-2" d="M482,30.651l-1.975,1.014c-.308-.618-.693-.915-1.154-.915a.769.769,0,0,0-.564.223.714.714,0,0,0-.231.544c0,.4.462.766,1.385,1.137a7.955,7.955,0,0,1,2.565,1.459,2.461,2.461,0,0,1,.667,1.8,3.067,3.067,0,0,1-1.1,2.423,3.844,3.844,0,0,1-2.591.915,3.758,3.758,0,0,1-3.694-2.448l2.052-.915a5.383,5.383,0,0,0,.641.915,1.46,1.46,0,0,0,1.052.4c.821,0,1.206-.346,1.206-1.063,0-.42-.308-.791-.949-1.162-.231-.124-.487-.223-.718-.346-.231-.1-.487-.223-.744-.346a4.467,4.467,0,0,1-1.462-.989,2.4,2.4,0,0,1-.539-1.607,2.8,2.8,0,0,1,.923-2.151,3.351,3.351,0,0,1,2.309-.841A3.046,3.046,0,0,1,482,30.651Z" transform="translate(-353.376 -21.602)"/>
      </g>
    </g>
    <g id="Menu" transform="translate(424 -1934)">
      <rect id="長方形_123" data-name="長方形 123" class="cls-3" width="54" height="50" transform="translate(766 1934)"/>
    </g>
  </g>
</svg>
